<svg width="245" height="48" viewBox="0 0 245 48" fill="none" xmlns="http://www.w3.org/2000/svg">
<path d="M6.96027 10.8399L15.6003 5.83994C16.5069 5.30661 17.3069 5.23994 18.0003 5.63994C18.7203 6.03994 19.0803 6.77327 19.0803 7.83994V31.0399C19.0803 31.7333 18.9069 32.4799 18.5603 33.2799C18.2403 34.0799 17.8136 34.8266 17.2803 35.5199C16.7736 36.1866 16.2136 36.6933 15.6003 37.0399L6.96027 42.0399C6.02694 42.5733 5.21361 42.6399 4.52027 42.2399C3.82694 41.8399 3.48027 41.1066 3.48027 40.0399V16.8399C3.48027 16.1199 3.64027 15.3733 3.96027 14.5999C4.28027 13.7999 4.70694 13.0666 5.24027 12.3999C5.77361 11.7066 6.34694 11.1866 6.96027 10.8399ZM6.96027 38.0399L15.6003 33.0399V9.83994L6.96027 14.8399V38.0399ZM15.6003 9.83994V33.0399L12.1203 31.0399V7.83994L15.6003 9.83994ZM15.6003 33.0399L6.96027 38.0399L3.48027 36.0399L12.1203 31.0399L15.6003 33.0399ZM18.0403 5.63994C17.3203 5.23994 16.5069 5.30661 15.6003 5.83994L6.96027 10.8399C6.34694 11.1866 5.77361 11.7066 5.24027 12.3999C4.70694 13.0666 4.28027 13.7999 3.96027 14.5999C3.64027 15.3733 3.48027 16.1199 3.48027 16.8399V40.0399C3.48027 41.1066 3.82694 41.8399 4.52027 42.2399L1.04027 40.2399C0.34694 39.8399 0.000273496 39.1066 0.000273496 38.0399V14.8399C0.000273496 14.1199 0.160274 13.3733 0.480274 12.5999C0.800274 11.7999 1.22694 11.0666 1.76027 10.3999C2.29361 9.70661 2.86694 9.18661 3.48027 8.83994L12.1203 3.83994C13.0536 3.30661 13.8669 3.23994 14.5603 3.63994L18.0403 5.63994ZM39.89 20.4399L50.25 14.4399V45.6399L46.81 47.6399V34.0399C46.81 34.7333 46.65 35.4799 46.33 36.2799C46.01 37.0799 45.5833 37.8266 45.05 38.5199C44.5166 39.1866 43.9433 39.6933 43.33 40.0399L39.89 42.0399C38.9566 42.5733 38.1433 42.6399 37.45 42.2399C36.7566 41.8399 36.41 41.1066 36.41 40.0399V26.4399C36.41 25.7199 36.57 24.9733 36.89 24.1999C37.21 23.3999 37.6366 22.6666 38.17 21.9999C38.7033 21.3066 39.2766 20.7866 39.89 20.4399ZM39.89 24.4399V38.0399L46.81 34.0399V20.4399L39.89 24.4399ZM46.81 34.0399V47.6399L43.33 45.6399V32.0399L46.81 34.0399ZM46.81 20.4399V34.0399L43.33 32.0399V18.4399L46.81 20.4399ZM46.81 34.0399L39.89 38.0399L36.41 36.0399L43.33 32.0399L46.81 34.0399ZM50.25 14.4399L39.89 20.4399C39.2766 20.7866 38.7033 21.3066 38.17 21.9999C37.6366 22.6666 37.21 23.3999 36.89 24.1999C36.57 24.9733 36.41 25.7199 36.41 26.4399V40.0399C36.41 41.1066 36.7566 41.8399 37.45 42.2399L33.97 40.2399C33.2766 39.8399 32.93 39.1066 32.93 38.0399V24.4399C32.93 23.7199 33.09 22.9733 33.41 22.1999C33.73 21.3999 34.1566 20.6666 34.69 19.9999C35.2233 19.3066 35.7966 18.7866 36.41 18.4399L46.81 12.4399L50.25 14.4399ZM57.1912 22.4399L60.6712 20.4399V38.0399L67.5912 34.0399V16.4399L71.0312 14.4399V36.0399L67.5912 38.0399V34.0399C67.5912 34.7333 67.4312 35.4799 67.1112 36.2799C66.7912 37.0799 66.3645 37.8266 65.8312 38.5199C65.2979 39.1866 64.7245 39.6933 64.1112 40.0399L60.6712 42.0399C59.7379 42.5733 58.9245 42.6399 58.2312 42.2399C57.5379 41.8399 57.1912 41.1066 57.1912 40.0399V22.4399ZM67.5912 34.0399V38.0399L64.1112 36.0399V32.0399L67.5912 34.0399ZM71.0312 14.4399L67.5912 16.4399L64.1112 14.4399L67.5912 12.4399L71.0312 14.4399ZM67.5912 16.4399V34.0399L64.1112 32.0399V14.4399L67.5912 16.4399ZM60.6712 20.4399L57.1912 22.4399L53.7112 20.4399L57.1912 18.4399L60.6712 20.4399ZM67.5912 34.0399L60.6712 38.0399L57.1912 36.0399L64.1112 32.0399L67.5912 34.0399ZM57.1912 22.4399V40.0399C57.1912 41.1066 57.5379 41.8399 58.2312 42.2399L54.7512 40.2399C54.0579 39.8399 53.7112 39.1066 53.7112 38.0399V20.4399L57.1912 22.4399ZM81.4525 18.8399L88.3725 14.8399C89.2791 14.3066 90.0791 14.2399 90.7725 14.6399C91.4658 15.0399 91.8125 15.7733 91.8125 16.8399V22.8399C91.8125 23.5333 91.6525 24.2799 91.3325 25.0799C91.0125 25.8799 90.5858 26.6266 90.0525 27.3199C89.5458 27.9866 88.9858 28.4933 88.3725 28.8399L84.8925 30.8399C83.9858 31.3733 83.1858 31.4399 82.4925 31.0399C81.7991 30.6399 81.4525 29.9066 81.4525 28.8399V38.0399L91.8125 32.0399V36.0399L81.4525 42.0399C80.5191 42.5733 79.7058 42.6399 79.0125 42.2399C78.3191 41.8399 77.9725 41.1066 77.9725 40.0399V24.8399C77.9725 24.1199 78.1325 23.3733 78.4525 22.5999C78.7725 21.7999 79.1991 21.0666 79.7325 20.3999C80.2658 19.7066 80.8391 19.1866 81.4525 18.8399ZM88.3725 18.8399L81.4525 22.8399V28.8399L88.3725 24.8399V18.8399ZM91.8125 32.0399L81.4525 38.0399L77.9725 36.0399L88.3725 30.0399L91.8125 32.0399ZM88.3725 18.8399V24.8399L84.8925 22.8399V16.8399L88.3725 18.8399ZM81.4525 28.8399C81.4525 29.9066 81.7991 30.6399 82.4925 31.0399L79.0125 29.0399C78.3191 28.6399 77.9725 27.9066 77.9725 26.8399L81.4525 28.8399ZM88.3725 24.8399L81.4525 28.8399L77.9725 26.8399L84.8925 22.8399L88.3725 24.8399ZM90.7725 14.6399C90.0791 14.2399 89.2791 14.3066 88.3725 14.8399L81.4525 18.8399C80.8391 19.1866 80.2658 19.7066 79.7325 20.3999C79.1991 21.0666 78.7725 21.7999 78.4525 22.5999C78.1325 23.3733 77.9725 24.1199 77.9725 24.8399V40.0399C77.9725 41.1066 78.3191 41.8399 79.0125 42.2399L75.5325 40.2399C74.8391 39.8399 74.4925 39.1066 74.4925 38.0399V22.8399C74.4925 22.1199 74.6525 21.3733 74.9725 20.5999C75.2925 19.7999 75.7191 19.0666 76.2525 18.3999C76.7858 17.7066 77.3591 17.1866 77.9725 16.8399L84.8925 12.8399C85.8258 12.3066 86.6391 12.2399 87.3325 12.6399L90.7725 14.6399ZM112.624 18.8399L119.544 14.8399C120.451 14.3066 121.251 14.2399 121.944 14.6399C122.638 15.0399 122.984 15.7733 122.984 16.8399V22.8399C122.984 23.5333 122.824 24.2799 122.504 25.0799C122.184 25.8799 121.758 26.6266 121.224 27.3199C120.718 27.9866 120.158 28.4933 119.544 28.8399L116.064 30.8399C115.158 31.3733 114.358 31.4399 113.664 31.0399C112.971 30.6399 112.624 29.9066 112.624 28.8399V38.0399L122.984 32.0399V36.0399L112.624 42.0399C111.691 42.5733 110.878 42.6399 110.184 42.2399C109.491 41.8399 109.144 41.1066 109.144 40.0399V24.8399C109.144 24.1199 109.304 23.3733 109.624 22.5999C109.944 21.7999 110.371 21.0666 110.904 20.3999C111.438 19.7066 112.011 19.1866 112.624 18.8399ZM119.544 18.8399L112.624 22.8399V28.8399L119.544 24.8399V18.8399ZM110.664 12.0799L118.944 1.99994L120.784 4.39994L112.504 14.4799L110.664 12.0799ZM122.984 32.0399L112.624 38.0399L109.144 36.0399L119.544 30.0399L122.984 32.0399ZM119.544 18.8399V24.8399L116.064 22.8399V16.8399L119.544 18.8399ZM112.624 28.8399C112.624 29.9066 112.971 30.6399 113.664 31.0399L110.184 29.0399C109.491 28.6399 109.144 27.9066 109.144 26.8399L112.624 28.8399ZM119.544 24.8399L112.624 28.8399L109.144 26.8399L116.064 22.8399L119.544 24.8399ZM121.944 14.6399C121.251 14.2399 120.451 14.3066 119.544 14.8399L112.624 18.8399C112.011 19.1866 111.438 19.7066 110.904 20.3999C110.371 21.0666 109.944 21.7999 109.624 22.5999C109.304 23.3733 109.144 24.1199 109.144 24.8399V40.0399C109.144 41.1066 109.491 41.8399 110.184 42.2399L106.704 40.2399C106.011 39.8399 105.664 39.1066 105.664 38.0399V22.8399C105.664 22.1199 105.824 21.3733 106.144 20.5999C106.464 19.7999 106.891 19.0666 107.424 18.3999C107.958 17.7066 108.531 17.1866 109.144 16.8399L116.064 12.8399C116.998 12.3066 117.811 12.2399 118.504 12.6399L121.944 14.6399ZM118.944 1.99994L110.664 12.0799L107.184 10.0799L115.464 -6.00815e-05L118.944 1.99994ZM110.664 12.0799L112.504 14.4799L109.024 12.4799L107.184 10.0799L110.664 12.0799ZM143.796 10.8399L157.636 2.83994C158.543 2.30661 159.343 2.23994 160.036 2.63994C160.756 3.03994 161.116 3.77327 161.116 4.83994V30.4399L157.636 32.4399V6.83994L152.436 9.83994V35.4399L148.956 37.4399V11.8399L143.796 14.8399V40.4399L140.316 42.4399V16.8399C140.316 16.1199 140.476 15.3733 140.796 14.5999C141.116 13.7999 141.543 13.0666 142.076 12.3999C142.61 11.7066 143.183 11.1866 143.796 10.8399ZM157.636 6.83994V32.4399L154.156 30.4399V4.83994L157.636 6.83994ZM148.956 11.8399V37.4399L145.516 35.4399V9.83994L148.956 11.8399ZM160.036 2.63994C159.343 2.23994 158.543 2.30661 157.636 2.83994L143.796 10.8399C143.183 11.1866 142.61 11.7066 142.076 12.3999C141.543 13.0666 141.116 13.7999 140.796 14.5999C140.476 15.3733 140.316 16.1199 140.316 16.8399V42.4399L136.836 40.4399V14.8399C136.836 14.1199 136.996 13.3733 137.316 12.5999C137.636 11.7999 138.063 11.0666 138.596 10.3999C139.13 9.70661 139.703 9.18661 140.316 8.83994L154.156 0.839939C155.09 0.306607 155.903 0.239941 156.596 0.639939L160.036 2.63994ZM168.051 20.8399L178.451 14.8399C179.357 14.3066 180.157 14.2399 180.851 14.6399C181.544 15.0399 181.891 15.7733 181.891 16.8399V36.0399L178.451 38.0399V34.0399C178.451 34.7333 178.291 35.4799 177.971 36.2799C177.651 37.0799 177.224 37.8266 176.691 38.5199C176.157 39.1866 175.584 39.6933 174.971 40.0399L171.531 42.0399C170.597 42.5733 169.784 42.6399 169.091 42.2399C168.397 41.8399 168.051 41.1066 168.051 40.0399V34.4399C168.051 33.7199 168.211 32.9733 168.531 32.1999C168.851 31.3999 169.277 30.6666 169.811 29.9999C170.344 29.3066 170.917 28.7866 171.531 28.4399L178.451 24.4399V18.8399L168.051 24.8399V20.8399ZM171.531 38.0399L178.451 34.0399V28.4399L171.531 32.4399V38.0399ZM178.451 18.8399V24.4399L174.971 22.4399V16.8399L178.451 18.8399ZM178.451 34.0399V38.0399L174.971 36.0399V32.0399L178.451 34.0399ZM178.451 28.4399V34.0399L174.971 32.0399V26.4399L178.451 28.4399ZM178.451 34.0399L171.531 38.0399L168.051 36.0399L174.971 32.0399L178.451 34.0399ZM178.451 24.4399L171.531 28.4399C170.917 28.7866 170.344 29.3066 169.811 29.9999C169.277 30.6666 168.851 31.3999 168.531 32.1999C168.211 32.9733 168.051 33.7199 168.051 34.4399V40.0399C168.051 41.1066 168.397 41.8399 169.091 42.2399L165.611 40.2399C164.917 39.8399 164.571 39.1066 164.571 38.0399V32.4399C164.571 31.7199 164.731 30.9733 165.051 30.1999C165.371 29.3999 165.797 28.6666 166.331 27.9999C166.864 27.3066 167.437 26.7866 168.051 26.4399L174.971 22.4399L178.451 24.4399ZM180.851 14.6399C180.157 14.2399 179.357 14.3066 178.451 14.8399L168.051 20.8399L164.571 18.8399L174.971 12.8399C175.904 12.3066 176.717 12.2399 177.411 12.6399L180.851 14.6399ZM168.051 20.8399V24.8399L164.571 22.8399V18.8399L168.051 20.8399ZM195.752 16.8399L199.232 14.8399C200.139 14.3066 200.939 14.2399 201.632 14.6399C202.325 15.0399 202.672 15.7733 202.672 16.8399V30.4399C202.672 31.1333 202.512 31.8799 202.192 32.6799C201.872 33.4799 201.445 34.2266 200.912 34.9199C200.405 35.5866 199.845 36.0933 199.232 36.4399L192.312 40.4399V45.6399L188.832 47.6399V20.8399L192.312 18.8399V22.8399C192.312 22.1199 192.472 21.3733 192.792 20.5999C193.112 19.7999 193.525 19.0666 194.032 18.3999C194.565 17.7066 195.139 17.1866 195.752 16.8399ZM199.232 18.8399L192.312 22.8399V36.4399L199.232 32.4399V18.8399ZM199.232 18.8399V32.4399L195.752 30.4399V16.8399L199.232 18.8399ZM199.232 32.4399L192.312 36.4399L188.832 34.4399L195.752 30.4399L199.232 32.4399ZM201.632 14.6399C200.939 14.2399 200.139 14.3066 199.232 14.8399L195.752 16.8399C195.139 17.1866 194.565 17.7066 194.032 18.3999C193.525 19.0666 193.112 19.7999 192.792 20.5999C192.472 21.3733 192.312 22.1199 192.312 22.8399L188.832 20.8399C188.832 20.1199 188.992 19.3733 189.312 18.5999C189.632 17.7999 190.059 17.0666 190.592 16.3999C191.125 15.7066 191.699 15.1866 192.312 14.8399L195.752 12.8399C196.685 12.3066 197.499 12.2399 198.192 12.6399L201.632 14.6399ZM188.832 20.8399V47.6399L185.352 45.6399V18.8399L188.832 20.8399ZM192.312 18.8399L188.832 20.8399L185.352 18.8399L188.832 16.8399L192.312 18.8399ZM209.613 22.4399L213.093 20.4399V38.0399L220.013 34.0399V16.4399L223.453 14.4399V36.0399L220.013 38.0399V34.0399C220.013 34.7333 219.853 35.4799 219.533 36.2799C219.213 37.0799 218.786 37.8266 218.253 38.5199C217.72 39.1866 217.146 39.6933 216.533 40.0399L213.093 42.0399C212.16 42.5733 211.346 42.6399 210.653 42.2399C209.96 41.8399 209.613 41.1066 209.613 40.0399V22.4399ZM220.013 34.0399V38.0399L216.533 36.0399V32.0399L220.013 34.0399ZM223.453 14.4399L220.013 16.4399L216.533 14.4399L220.013 12.4399L223.453 14.4399ZM220.013 16.4399V34.0399L216.533 32.0399V14.4399L220.013 16.4399ZM213.093 20.4399L209.613 22.4399L206.133 20.4399L209.613 18.4399L213.093 20.4399ZM220.013 34.0399L213.093 38.0399L209.613 36.0399L216.533 32.0399L220.013 34.0399ZM209.613 22.4399V40.0399C209.613 41.1066 209.96 41.8399 210.653 42.2399L207.173 40.2399C206.48 39.8399 206.133 39.1066 206.133 38.0399V20.4399L209.613 22.4399ZM237.314 28.8399V33.2399L233.874 35.2399V30.8399C233.874 30.1199 234.034 29.3733 234.354 28.5999C234.674 27.7999 235.088 27.0666 235.594 26.3999C236.128 25.7066 236.701 25.1866 237.314 24.8399L240.794 22.8399V10.0399L233.874 14.0399V18.0399L230.394 20.0399V16.0399C230.394 15.3199 230.554 14.5733 230.874 13.7999C231.194 12.9999 231.621 12.2666 232.154 11.5999C232.688 10.9066 233.261 10.3866 233.874 10.0399L240.794 6.03994C241.701 5.50661 242.501 5.43994 243.194 5.83994C243.888 6.23994 244.234 6.97327 244.234 8.03994V20.8399C244.234 21.5333 244.074 22.2799 243.754 23.0799C243.434 23.8799 243.008 24.6266 242.474 25.3199C241.968 25.9866 241.408 26.4933 240.794 26.8399L237.314 28.8399ZM235.594 42.6399C234.874 43.0399 234.288 43.1066 233.834 42.8399C233.381 42.5733 233.154 42.0399 233.154 41.2399C233.154 40.4399 233.381 39.6399 233.834 38.8399C234.288 38.0399 234.874 37.4399 235.594 37.0399C236.288 36.6399 236.861 36.5733 237.314 36.8399C237.768 37.1066 237.994 37.6399 237.994 38.4399C237.994 39.2399 237.768 40.0399 237.314 40.8399C236.861 41.6399 236.288 42.2399 235.594 42.6399ZM240.794 10.0399V22.8399L237.314 20.8399V8.03994L240.794 10.0399ZM237.314 36.8399C236.861 36.5733 236.288 36.6399 235.594 37.0399C234.874 37.4399 234.288 38.0399 233.834 38.8399C233.381 39.6399 233.154 40.4399 233.154 41.2399C233.154 42.0399 233.381 42.5733 233.834 42.8399L230.394 40.8399C229.941 40.5733 229.714 40.0399 229.714 39.2399C229.714 38.4399 229.941 37.6399 230.394 36.8399C230.848 36.0399 231.421 35.4399 232.114 35.0399C232.834 34.6399 233.421 34.5733 233.874 34.8399L237.314 36.8399ZM240.794 22.8399L237.314 24.8399C236.701 25.1866 236.128 25.7066 235.594 26.3999C235.088 27.0666 234.674 27.7999 234.354 28.5999C234.034 29.3733 233.874 30.1199 233.874 30.8399V35.2399L230.394 33.2399V28.8399C230.394 28.1199 230.554 27.3733 230.874 26.5999C231.194 25.7999 231.621 25.0666 232.154 24.3999C232.688 23.7066 233.261 23.1866 233.874 22.8399L237.314 20.8399L240.794 22.8399ZM243.194 5.83994C242.501 5.43994 241.701 5.50661 240.794 6.03994L233.874 10.0399C233.261 10.3866 232.688 10.9066 232.154 11.5999C231.621 12.2666 231.194 12.9999 230.874 13.7999C230.554 14.5733 230.394 15.3199 230.394 16.0399V20.0399L226.914 18.0399V14.0399C226.914 13.3199 227.074 12.5733 227.394 11.7999C227.714 10.9999 228.141 10.2666 228.674 9.59994C229.208 8.90661 229.781 8.38661 230.394 8.03994L237.314 4.03994C238.248 3.50661 239.061 3.43994 239.754 3.83994L243.194 5.83994Z" fill="#0277BD"/>
</svg>
