<svg width="307" height="154" viewBox="0 0 307 154" fill="none" xmlns="http://www.w3.org/2000/svg">
<g filter="url(#filter0_d_2108_131)">
<path d="M26.6202 35.1L71.6002 9.10004C74.5468 7.36671 77.1468 7.15004 79.4002 8.45004C81.7402 9.75004 82.9102 12.1334 82.9102 15.6V98.8L71.6002 105.3V22.1L54.7002 31.85V115.05L43.3902 121.55V38.35L26.6202 48.1V131.3L15.3102 137.8V54.6C15.3102 52.26 15.8302 49.8334 16.8702 47.32C17.9102 44.72 19.2968 42.3367 21.0302 40.17C22.7635 37.9167 24.6268 36.2267 26.6202 35.1ZM71.6002 22.1V105.3L60.2902 98.8V15.6L71.6002 22.1ZM43.3902 38.35V121.55L32.2102 115.05V31.85L43.3902 38.35ZM79.4002 8.45004C77.1468 7.15004 74.5468 7.36671 71.6002 9.10004L26.6202 35.1C24.6268 36.2267 22.7635 37.9167 21.0302 40.17C19.2968 42.3367 17.9102 44.72 16.8702 47.32C15.8302 49.8334 15.3102 52.26 15.3102 54.6V137.8L4.00016 131.3V48.1C4.00016 45.76 4.52016 43.3334 5.56016 40.82C6.60016 38.22 7.98682 35.8367 9.72016 33.67C11.4535 31.4167 13.3168 29.7267 15.3102 28.6L60.2902 2.60004C63.3235 0.866713 65.9668 0.650047 68.2202 1.95004L79.4002 8.45004ZM116.757 35.1L144.837 18.85C147.784 17.1167 150.384 16.9 152.637 18.2C154.977 19.5 156.147 21.8834 156.147 25.35V108.55L144.837 115.05V89.05L116.757 105.3V131.3L105.447 137.8V54.6C105.447 52.26 105.967 49.8334 107.007 47.32C108.047 44.72 109.434 42.3367 111.167 40.17C112.9 37.9167 114.764 36.2267 116.757 35.1ZM144.837 76.05V31.85L116.757 48.1V92.3L144.837 76.05ZM144.837 89.05V115.05L133.527 108.55V82.55L144.837 89.05ZM144.837 31.85V76.05L133.527 69.55V25.35L144.837 31.85ZM144.837 76.05L116.757 92.3L105.447 85.8L133.527 69.55L144.837 76.05ZM152.767 18.2C150.427 16.9 147.784 17.1167 144.837 18.85L116.757 35.1C114.764 36.2267 112.9 37.9167 111.167 40.17C109.434 42.3367 108.047 44.72 107.007 47.32C105.967 49.8334 105.447 52.26 105.447 54.6V137.8L94.1369 131.3V48.1C94.1369 45.76 94.6569 43.3334 95.6969 40.82C96.7369 38.22 98.1235 35.8367 99.8569 33.67C101.59 31.4167 103.454 29.7267 105.447 28.6L133.527 12.35C136.56 10.6167 139.204 10.4 141.457 11.7L152.767 18.2ZM201.189 98.8C198.242 100.533 195.642 100.75 193.389 99.45C191.135 98.15 190.009 95.7667 190.009 92.3V131.3L178.699 137.8V41.6L218.089 18.85C221.035 17.1167 223.635 16.9 225.889 18.2C228.229 19.5 229.399 21.8834 229.399 25.35V69.55C229.399 71.8034 228.835 74.23 227.709 76.83C226.669 79.43 225.282 81.8567 223.549 84.11C221.902 86.2767 220.082 87.9234 218.089 89.05L201.189 98.8ZM218.089 31.85L190.009 48.1V92.3L218.089 76.05V31.85ZM190.009 92.3C190.009 95.7667 191.135 98.15 193.389 99.45L182.079 92.95C179.825 91.65 178.699 89.2667 178.699 85.8L190.009 92.3ZM218.089 31.85V76.05L206.779 69.55V25.35L218.089 31.85ZM218.089 76.05L190.009 92.3L178.699 85.8L206.779 69.55L218.089 76.05ZM226.019 18.2C223.679 16.9 221.035 17.1167 218.089 18.85L178.699 41.6L167.389 35.1L206.779 12.35C209.812 10.6167 212.455 10.4 214.709 11.7L226.019 18.2ZM178.699 41.6V137.8L167.389 131.3V35.1L178.699 41.6ZM291.341 120.25L263.261 136.5C260.227 138.233 257.584 138.45 255.331 137.15C253.077 135.85 251.951 133.467 251.951 130V46.8L263.261 40.3V123.5L291.341 107.25V24.05L302.651 17.55V100.75C302.651 103.003 302.087 105.43 300.961 108.03C299.921 110.63 298.534 113.057 296.801 115.31C295.154 117.477 293.334 119.123 291.341 120.25ZM302.651 17.55L291.341 24.05L280.031 17.55L291.341 11.05L302.651 17.55ZM291.341 24.05V107.25L280.031 100.75V17.55L291.341 24.05ZM291.341 107.25L263.261 123.5L251.951 117L280.031 100.75L291.341 107.25ZM263.261 40.3L251.951 46.8L240.641 40.3L251.951 33.8L263.261 40.3ZM251.951 46.8V130C251.951 133.467 253.077 135.85 255.331 137.15L244.021 130.65C241.767 129.35 240.641 126.967 240.641 123.5V40.3L251.951 46.8Z" fill="#0277BD"/>
</g>
<defs>
<filter id="filter0_d_2108_131" x="0" y="0" width="306.65" height="153.1" filterUnits="userSpaceOnUse" color-interpolation-filters="sRGB">
<feFlood flood-opacity="0" result="BackgroundImageFix"/>
<feColorMatrix in="SourceAlpha" type="matrix" values="0 0 0 0 0 0 0 0 0 0 0 0 0 0 0 0 0 0 127 0" result="hardAlpha"/>
<feOffset dy="10"/>
<feGaussianBlur stdDeviation="2"/>
<feComposite in2="hardAlpha" operator="out"/>
<feColorMatrix type="matrix" values="0 0 0 0 0 0 0 0 0 0 0 0 0 0 0 0 0 0 0.25 0"/>
<feBlend mode="normal" in2="BackgroundImageFix" result="effect1_dropShadow_2108_131"/>
<feBlend mode="normal" in="SourceGraphic" in2="effect1_dropShadow_2108_131" result="shape"/>
</filter>
</defs>
</svg>
