<svg width="67" height="81" viewBox="0 0 67 81" fill="none" xmlns="http://www.w3.org/2000/svg">
<path d="M25.1252 64.1251C11.1668 69.1876 11.1668 55.6876 5.5835 54.0001M44.6668 74.2501V61.1888C44.7716 59.5795 44.5917 57.9617 44.1392 56.4429C43.6868 54.9241 42.9721 53.5391 42.0427 52.3801C50.8085 51.1988 60.021 47.1826 60.021 28.7551C60.0203 24.043 58.521 19.5116 55.8335 16.0988C57.1061 11.9763 57.0161 7.41952 55.5822 3.37509C55.5822 3.37509 52.2881 2.19384 44.6668 8.37009C38.2684 6.27362 31.5236 6.27362 25.1252 8.37009C17.5039 2.19384 14.2097 3.37509 14.2097 3.37509C12.7759 7.41952 12.6859 11.9763 13.9585 16.0988C11.2509 19.537 9.75012 24.1093 9.771 28.8563C9.771 47.1488 18.9835 51.1651 27.7493 52.4813C26.8309 53.6288 26.1225 54.9971 25.6704 56.4973C25.2183 57.9976 25.0325 59.5961 25.1252 61.1888V74.2501" stroke="#1E1E1E" stroke-width="3" stroke-linecap="round" stroke-linejoin="round"/>
</svg>
